<?xml version="1.0" encoding="UTF-8"?><!DOCTYPE svg PUBLIC "-//W3C//DTD SVG 1.1//EN" "http://www.w3.org/Graphics/SVG/1.1/DTD/svg11.dtd"><svg xmlns="http://www.w3.org/2000/svg"><symbol id="icon-external-link" viewBox="0 0 24 24"><title>external-link</title><g fill="currentColor"><path d="M23 0h-7.31a.92.92 0 1 0 0 1.85h5.18L9.5 13.2a.92.92 0 1 0 1.28 1.33L22.15 3.16v5.15a.92.92 0 0 0 1.85 0V1a.92.92 0 0 0-.79-1H23z"/><path d="M10.15 3.7a53.15 53.15 0 0 0-5.43.15 5.26 5.26 0 0 0-3.29 1.28A5.26 5.26 0 0 0 .15 8.42 53.34 53.34 0 0 0 0 13.85a52.32 52.32 0 0 0 .16 5.43 5.27 5.27 0 0 0 1.29 3.29 5.27 5.27 0 0 0 3.29 1.28 52.91 52.91 0 0 0 5.42.15 52.37 52.37 0 0 0 5.42-.16 5.28 5.28 0 0 0 3.29-1.28 5.27 5.27 0 0 0 1.28-3.29 52.12 52.12 0 0 0 .16-5.42.92.92 0 0 0-1.85 0c0 2.3 0 4-.15 5.21a3.58 3.58 0 0 1-.76 2.19 3.58 3.58 0 0 1-2.19.76c-1.2.14-2.92.14-5.21.14s-4 0-5.21-.14a3.58 3.58 0 0 1-2.19-.75A3.57 3.57 0 0 1 2 19.07c-.14-1.21-.15-2.92-.15-5.22s0-4 .14-5.22a3.57 3.57 0 0 1 .75-2.19 3.57 3.57 0 0 1 2.19-.75c1.21-.14 2.92-.14 5.22-.14a.92.92 0 0 0 0-1.85z"/></g></symbol></svg>